<svg id="Modo_de_aislamiento" data-name="Modo de aislamiento" xmlns="http://www.w3.org/2000/svg" viewBox="0 0 190.6 104.3"><defs><style>.cls-1{fill:#288f46;}</style></defs><title>contenedorIdentificadorProducto@empanada</title><path class="cls-1" d="M190.2,68.9c-.8-7-3.9-12.5-9.3-16.2a1.8,1.8,0,0,1-.4-.7c-1.4-3.8-3.5-8.7-7.5-12.7h-.2l-3.5-2.6-.4-.2a3.4,3.4,0,0,1-2.4-2,28.2,28.2,0,0,0-7.7-9.9l-.3-.2-5.9-3a3.5,3.5,0,0,1-2-.9l-2.8-3.3-1.2-1.3h-.1l-.7-.7-.6-.5a18.5,18.5,0,0,0-11.7-4.3h-.3l-.7-.5c-2.7-2.5-6.9-5.9-12.6-7a17.6,17.6,0,0,0-8.6.4,1.4,1.4,0,0,1-1.5-.2A16.8,16.8,0,0,0,96.1.6H94.7l-1.1.5-3,1.2h-.2a24.2,24.2,0,0,0-10.7-.9h-.3l-.8.2h-.1L76,2.9h-.3L73.3,4.5l-.3.2L70.9,6.9l-.2.3-.6,1a1.6,1.6,0,0,1-1.7.8L64,8.8a6.1,6.1,0,0,0-2.3,0l-1.2.3A22.8,22.8,0,0,0,53,13.7h-.1l-2.5,2.6-.2.3A6.4,6.4,0,0,1,47,19.2a53.4,53.4,0,0,0-5.8,3.1l-2.3,1.4-.3.2a32.3,32.3,0,0,0-6.1,7.5l-.6,1.1v.2h-.1l-.8.2h-.2l-4.9,2.8-.2.2a18.7,18.7,0,0,0-6.4,13.2l-.2.3A22.7,22.7,0,0,0,11,65.9v.3A24.5,24.5,0,0,0,3.2,81.8l-.2.3v.2l-.7,1A13.4,13.4,0,0,0,.6,85.5a4.5,4.5,0,0,0-.3,3.7,4.5,4.5,0,0,0,2.6,2.6l1.9.8a2.2,2.2,0,0,0,1,.5l2.2.8c47,16.7,124.2,12.6,176.6-5.7a4.5,4.5,0,0,0,1.1-.6l1-.8.3-.4a9.2,9.2,0,0,0,1.8-3.4l.4-1.1C191,77.4,190.7,73,190.2,68.9ZM76.7,99.5c-22.7,0-43-2.7-60.5-7.9l-.6-.4-6.5-2-2.3-.8H6.6l-2-.6H4.5a1.4,1.4,0,0,0,0-.3h0c.1-.7.4-.9,1.2-1.2L8.4,85,11.1,84,15,82.7l4.3-1.3A16.9,16.9,0,0,0,30.6,69v-.4a16.7,16.7,0,0,0,.6-2.7,1.5,1.5,0,0,1,.8-1.2,16,16,0,0,0,5.4-7.1,11.2,11.2,0,0,1,3.6-7.1A18.5,18.5,0,0,0,49.6,42l1.3-2.2c1.1-1.8,2.2-3,4.3-3.4,4.8-1,8.3-4.1,11.2-7a4.5,4.5,0,0,1,3.6-1.6,22.6,22.6,0,0,0,10.6-2.3L83,24.3l3.8-1.7h.2a20.5,20.5,0,0,0,17.2-.5.6.6,0,0,1,.7,0,15.9,15.9,0,0,0,9.1,1.9l1.6-.2a5.7,5.7,0,0,1,4.9,1.2c3.4,2.7,7.4,3.8,11.9,4.9a1,1,0,0,1,.8.6c1.8,3.2,4.7,4.8,7.6,6.2l3,1.2,2.5,1,.2.2a19,19,0,0,0,8.1,11.2c1.2.8,2.5,1.8,4,3.1v.2a13.8,13.8,0,0,0,2.8,9.4c1.6,2.3,3.4,4.4,5.1,6.5l.4.5c.5.6.6.9.5,1.3-.4,4.9.7,9.7,1.9,13.9v.8l.5,1.6v.5c-10,2.8-28.7,6.6-61.8,9.7C97.7,99,86.9,99.5,76.7,99.5ZM49.3,22.9h0l.7.4,2.1.5,4.6,1.1,5.8,1.8h.3q-7.2,7.1-16,6.2c-2.7-.3-5.4-.3-8.1-.4H37.1l.4-.6,1.2-1.5a33,33,0,0,1,2.9-3.3A20.9,20.9,0,0,1,48.9,23Zm20-9.6h.4l.6.2h.3l1.9,1a99.2,99.2,0,0,1,9.6,5.5c-3.6,1.9-7.5,3.5-11.7,3.5h-.3a33.1,33.1,0,0,1-7.3-1.2l-7.6-2.2-1.7-.5.3-.4q5.9-7.5,13.7-6ZM83.1,4.3h0V5.7a18.9,18.9,0,0,1,3.1.4l1.9.3a.8.8,0,0,1,.8.5l.3.5,1.9,1.8,4.2,4,4.7,4.9.7.8A15.6,15.6,0,0,1,87,17.8L80.6,14l-4-2.4L74,10.2l.3-.5c2-2.6,4.8-3.9,8.7-3.9Zm25.5,3.9a12.2,12.2,0,0,1,4.4,5.6l2,4.5.6,1.3a12.9,12.9,0,0,1-9.3-1.8,62.6,62.6,0,0,1-5-4.6L95.6,7.5,94,5.9a13.5,13.5,0,0,1,13.4.4c.4.3.5.4.5.5A1.4,1.4,0,0,0,108.6,8.2Zm7.9-1.5A16.4,16.4,0,0,1,126,9.9c4.1,2.8,4.1,2.8,4.8,7.9.3,2,.5,4,.7,6l.2,1.6a32.6,32.6,0,0,1-6.6-2.4A45.8,45.8,0,0,1,113.7,7h-.1Zm59.9,46.9-.2.5L174,58.3,172.9,60,170,64.4l-.7,1.4-.2-.2-5-7.3-.2-.5v-.4l-.4-1.9v-1a15.8,15.8,0,0,1,.4-2.4,13.5,13.5,0,0,1,.8-1.9l.7-1.7h0a36.9,36.9,0,0,0,1.5-4.7,26.1,26.1,0,0,0,.4-3.1,14.2,14.2,0,0,1,3.4,2.7c2.9,3,4.5,6.9,5.7,10.3ZM163.1,37.2c0,.1,0,.3,0,.4l-.6,5.6L160.4,49l-2-1.4c-2.3-1.6-4.4-3.1-5.7-5.4a22.7,22.7,0,0,1-1-2.1l-.4-.9-.4-3.4V35l.2-2.2.6-5.1.2-1.9a14.2,14.2,0,0,1,5.4,3.2,26.1,26.1,0,0,1,5.7,8C163.1,37,163.1,37.1,163.1,37.2Zm-16.3-4.4-.2,1.3v.2h0a26.2,26.2,0,0,1-6.4-3,16.8,16.8,0,0,1-3.3-3.3,3.4,3.4,0,0,1-.3-1l-.2-.9-.2-.6a6.4,6.4,0,0,1-.3-1c-.3-2.4-.6-4.9-.9-7.3l-.3-2.5a12.2,12.2,0,0,1,5.6,1.7,24.4,24.4,0,0,1,7.2,6.9c0,.1,0,.3,0,.4a6.6,6.6,0,0,0,0,.7A27.6,27.6,0,0,1,146.8,32.8ZM35.5,36.7h1.8a35,35,0,0,1,5.4.2l2.3.2h2.3l-3,4.9q-5.3,6.3-13,6H29.6l-5.1.3h-.7v-.2c.5-5.3,3.2-9,8.4-11.3A8.7,8.7,0,0,1,35.5,36.7ZM28.1,52.5h.8l6.2-.4h.1l-2.8,6.2a10.4,10.4,0,0,1-7.6,4.9l-2.3.3-2.2.3-4.6.8h-.1v-.3c.2-3,1.4-5.8,3.9-9.2,1.1-1.4,2.5-1.9,4.5-2.2Zm-10.3,16,.9-.2,5.4-.9,2.7-.4-1,3.2-1,2a11.7,11.7,0,0,1-6.2,4.8l-4.5,1.5-2.4.7L7.7,80.6A16.5,16.5,0,0,1,13.4,70C14.4,69.2,16.1,68.8,17.7,68.5Zm154.5,6.6a5.8,5.8,0,0,1-.1-.8v-.5a13.3,13.3,0,0,1,2.3-8.6l3.7-5.7,1.5-2.3h.1a15.3,15.3,0,0,1,5.5,8.4,29.2,29.2,0,0,1,.7,12.5l-1.7,4.2-.4.8h-.1s-1.9,1.5-8.8,3.7l-.7-2.7-.4-2.1Z"/></svg>