<?xml version="1.0" encoding="utf-8"?>
<!-- Generator: Adobe Illustrator 21.1.0, SVG Export Plug-In . SVG Version: 6.00 Build 0)  -->
<svg version="1.1" id="Capa_1" xmlns="http://www.w3.org/2000/svg" xmlns:xlink="http://www.w3.org/1999/xlink" x="0px" y="0px"
	 viewBox="0 0 128 128" style="enable-background:new 0 0 128 128;" xml:space="preserve">
<style type="text/css">
	.st0{fill:#F0F4EA;}
	.st1{fill:none;stroke:#1D1D1B;stroke-width:2;stroke-linecap:round;stroke-miterlimit:10;}
	.st2{fill:#8BC24A;}
	.st3{fill:none;stroke:#1D1D1B;stroke-width:2;stroke-miterlimit:10;}
	.st4{fill:#FFF59C;}
	.st5{fill:#FFE083;}
	.st6{fill:#FFF176;}
	.st7{fill:#FFD54F;}
	.st8{fill:#FFEE58;}
	.st9{fill:#FFC928;}
	.st10{fill:#FFEB3C;}
	.st11{fill:#FEC107;}
	.st12{fill:#FED835;}
	.st13{fill:#689F39;}
	.st14{opacity:0.5;fill:url(#SVGID_1_);}
	.st15{fill:#FFB200;}
	.st16{fill:#FCC02C;}
	.st17{fill:#FEA000;}
	.st18{fill:#F9A825;}
	.st19{fill:#FF8E00;}
	.st20{fill:#F67F17;}
	.st21{fill:#FF7000;}
	.st22{fill:none;stroke:#1D1D1B;stroke-width:1.6676;stroke-linecap:round;stroke-miterlimit:10;}
	.st23{fill:none;stroke:#1D1D1B;stroke-width:1.6676;stroke-linecap:round;stroke-linejoin:round;stroke-miterlimit:10;}
	.st24{fill:#1D1D1B;}
	.st25{fill:#388E3C;}
	.st26{fill:#FFFFFF;stroke:#1D1D1B;stroke-width:2;stroke-linecap:round;stroke-miterlimit:10;}
	.st27{fill:none;stroke:#1D1D1B;stroke-width:2;stroke-linecap:round;stroke-linejoin:round;stroke-miterlimit:10;}
	.st28{fill:none;stroke:#000000;stroke-width:2;stroke-miterlimit:10;}
	.st29{fill:none;stroke:#000000;stroke-miterlimit:10;}
	.st30{fill:none;stroke:#1D1D1B;stroke-width:3;stroke-linecap:round;stroke-miterlimit:10;}
	.st31{fill:#FFFFFF;stroke:#1D1D1B;stroke-width:0.25;stroke-miterlimit:10;}
	.st32{fill:none;stroke:#000000;stroke-width:2;stroke-linecap:round;stroke-miterlimit:10;}
	.st33{fill:none;stroke:#1D1D1B;stroke-width:1.5;stroke-linecap:round;stroke-miterlimit:10;}
	.st34{fill:#1D1D1B;stroke:#000000;stroke-width:2;stroke-miterlimit:10;}
	.st35{fill:none;stroke:#000000;stroke-width:2;stroke-linejoin:round;stroke-miterlimit:10;}
	.st36{fill:none;stroke:#000000;stroke-width:1.5;stroke-miterlimit:10;}
	.st37{fill:#FFFFFF;}
	.st38{fill:none;stroke:#FFFFFF;stroke-width:3;stroke-linecap:round;stroke-miterlimit:10;}
</style>
<path class="st25" d="M119.8,52.8C94.5,24.3,65.3,40.1,50.1,52c-4.5,3.6-7.9,6.9-10,9c-1.2,1.3-2.1,2.3-2.8,3.1L9.1,51.7
	c-0.6-0.2-1.2-0.1-1.7,0.3C7,52.4,6.8,53.1,7,53.7l10.7,36.5c0.2,0.6,0.6,1,1.2,1.1c0.1,0,0.2,0,0.3,0c0.5,0,0.9-0.2,1.2-0.6
	c5.3-6.7,13.4-16.8,17.1-21c10.6,14.2,23.3,18,33.8,18c2,0,3.9-0.1,5.7-0.4c20.8-2.6,39.9-18.4,43.5-27.8
	C121.8,56,120.8,53.9,119.8,52.8z M11,56l10.8,4.7c-0.9,2.8-3.6,11.5-3.3,20.8L11,56z M21.5,84.2c-0.9-9.4,1.9-19.1,2.9-22.3l11.3,5
	C33.6,69.2,29.6,74.1,21.5,84.2z M84.7,80.7c-2.4-16.2,5.2-32.9,8.1-38.6c2.5,0.4,4.9,1.1,7.3,2.1c-1.7,5-5.7,18.4-4.3,31.8
	C92.4,77.8,88.6,79.5,84.7,80.7z M61.5,49.9c4.3-2.6,9.2-5,14.3-6.5c-3.6,7.5-10,23.5-7.2,39.3c-3.9-0.3-7.5-1.1-10.9-2.6
	C56.3,67.9,59.8,55.2,61.5,49.9z M41.4,66.8c2.2-2.6,8.2-8.9,16.4-14.5c-1.8,6.2-3.9,16.3-3.1,26.5C49.7,76.1,45.3,72.1,41.4,66.8z
	 M76.4,82.5c-1.7,0.2-3.3,0.3-4.9,0.3c-3.2-16.8,5-34.6,8-40.3c1.5-0.3,3.1-0.6,4.6-0.7c1.9-0.2,3.8-0.2,5.7-0.1
	c-3.4,6.8-10.5,23.3-7.9,39.7C80.1,81.9,78.3,82.3,76.4,82.5z M116,57.8c-1.6,4.2-8.3,11.1-17.4,16.6c-0.9-12.1,2.6-24.3,4.2-29.1
	c4.8,2.4,9.3,6,13.5,10.7C116.3,56.1,116.4,56.6,116,57.8z"/>
</svg>
