<?xml version="1.0" encoding="utf-8"?>
<!-- Generator: Adobe Illustrator 21.1.0, SVG Export Plug-In . SVG Version: 6.00 Build 0)  -->
<svg version="1.1" id="Capa_1" xmlns="http://www.w3.org/2000/svg" xmlns:xlink="http://www.w3.org/1999/xlink" x="0px" y="0px"
	 viewBox="0 0 128 128" style="enable-background:new 0 0 128 128;" xml:space="preserve">
<style type="text/css">
	.st0{fill:#F0F4EA;}
	.st1{fill:none;stroke:#1D1D1B;stroke-width:2;stroke-linecap:round;stroke-miterlimit:10;}
	.st2{fill:#8BC24A;}
	.st3{fill:none;stroke:#1D1D1B;stroke-width:2;stroke-miterlimit:10;}
	.st4{fill:#FFF59C;}
	.st5{fill:#FFE083;}
	.st6{fill:#FFF176;}
	.st7{fill:#FFD54F;}
	.st8{fill:#FFEE58;}
	.st9{fill:#FFC928;}
	.st10{fill:#FFEB3C;}
	.st11{fill:#FEC107;}
	.st12{fill:#FED835;}
	.st13{fill:#689F39;}
	.st14{opacity:0.5;fill:url(#SVGID_1_);}
	.st15{fill:#FFB200;}
	.st16{fill:#FCC02C;}
	.st17{fill:#FEA000;}
	.st18{fill:#F9A825;}
	.st19{fill:#FF8E00;}
	.st20{fill:#F67F17;}
	.st21{fill:#FF7000;}
	.st22{fill:none;stroke:#1D1D1B;stroke-width:1.6676;stroke-linecap:round;stroke-miterlimit:10;}
	.st23{fill:none;stroke:#1D1D1B;stroke-width:1.6676;stroke-linecap:round;stroke-linejoin:round;stroke-miterlimit:10;}
	.st24{fill:#1D1D1B;}
	.st25{fill:#FFFFFF;}
	.st26{fill:#FFFFFF;stroke:#1D1D1B;stroke-width:2;stroke-linecap:round;stroke-miterlimit:10;}
	.st27{fill:none;stroke:#1D1D1B;stroke-width:2;stroke-linecap:round;stroke-linejoin:round;stroke-miterlimit:10;}
	.st28{fill:none;stroke:#000000;stroke-width:2;stroke-miterlimit:10;}
	.st29{fill:none;stroke:#000000;stroke-miterlimit:10;}
	.st30{fill:none;stroke:#1D1D1B;stroke-width:3;stroke-linecap:round;stroke-miterlimit:10;}
	.st31{fill:#FFFFFF;stroke:#1D1D1B;stroke-width:0.25;stroke-miterlimit:10;}
	.st32{fill:none;stroke:#000000;stroke-width:2;stroke-linecap:round;stroke-miterlimit:10;}
	.st33{fill:none;stroke:#1D1D1B;stroke-width:1.5;stroke-linecap:round;stroke-miterlimit:10;}
	.st34{fill:#1D1D1B;stroke:#000000;stroke-width:2;stroke-miterlimit:10;}
	.st35{fill:none;stroke:#000000;stroke-width:2;stroke-linejoin:round;stroke-miterlimit:10;}
	.st36{fill:none;stroke:#000000;stroke-width:1.5;stroke-miterlimit:10;}
	.st37{fill:none;stroke:#FFFFFF;stroke-width:3;stroke-linecap:round;stroke-miterlimit:10;}
</style>
<path class="st25" d="M31.4,77.6c-4.6,0-8.4-3.8-8.4-8.4s3.8-8.4,8.4-8.4s8.4,3.8,8.4,8.4S36,77.6,31.4,77.6z M31.4,63.8
	c-3,0-5.5,2.4-5.5,5.5s2.4,5.5,5.5,5.5s5.5-2.4,5.5-5.5S34.4,63.8,31.4,63.8z M45.6,90.1c-3,0-5.4-2.4-5.4-5.4c0-3,2.4-5.4,5.4-5.4
	c3,0,5.4,2.4,5.4,5.4C51.1,87.7,48.6,90.1,45.6,90.1z M45.6,82.2c-1.4,0-2.5,1.1-2.5,2.5c0,1.4,1.1,2.5,2.5,2.5
	c1.4,0,2.5-1.1,2.5-2.5C48.2,83.3,47,82.2,45.6,82.2z M92.6,84.5c-2.7,0-4.9-2.2-4.9-4.9s2.2-4.9,4.9-4.9s4.9,2.2,4.9,4.9
	S95.4,84.5,92.6,84.5z M92.6,77.6c-1.1,0-2,0.9-2,2c0,1.1,0.9,2,2,2c1.1,0,2-0.9,2-2C94.6,78.5,93.7,77.6,92.6,77.6z M67.7,86.7
	c-5,0-9.1-4.1-9.1-9.1c0-5,4.1-9.1,9.1-9.1s9.1,4.1,9.1,9.1C76.8,82.6,72.7,86.7,67.7,86.7z M67.7,71.4c-3.4,0-6.2,2.8-6.2,6.2
	s2.8,6.2,6.2,6.2c3.4,0,6.2-2.8,6.2-6.2S71.1,71.4,67.7,71.4z M117.6,70.3l-0.2-1l-1-0.4c-0.7-0.3-1.8-0.7-3.3-1.2
	c-10.9-8.7-42.5-34-47.9-38.5c-6.5-5.5-7-6.4-29.5,2.4c-12.5,4.8-17.5,10.3-19.5,14.2C4.7,54.3,13.1,81,15.8,89.9
	c0.3,0.8,0.4,1.4,0.5,1.7c0.5,6.5,8.7,10.1,25.2,11.1c3.2,0.2,6.6,0.3,10,0.3c13.3,0,27.1-1.3,35-2.2c25.5-2.9,25.9-4.6,26.1-5.7
	c0.1-0.8-0.2-1.9-1.5-2.3c-0.2-0.1-0.6-0.2-0.6-0.4c-0.4-1.1,1.4-4.5,2.7-7c0.7-1.3,1.4-2.6,2-3.9C118.4,75,117.6,70.5,117.6,70.3z
	 M111.9,80c-0.6,1.3-1.3,2.5-1.9,3.7c-2.1,4-4,7.5-2.9,10.2c0,0,0,0.1,0,0.1c-13.2,2.8-69.5,9.6-84.2,1c-1.9-1.1-2.8-2.3-2.9-3.8
	c0-0.4-0.1-0.7-0.7-2.5c-6.9-22.1-6.1-32.6-3.2-37.6L103.3,68c3.7,1.3,7.3,2.6,10.6,3.9C113.9,73.4,113.7,76.3,111.9,80z"/>
</svg>
