<?xml version="1.0" encoding="utf-8"?>
<!-- Generator: Adobe Illustrator 21.1.0, SVG Export Plug-In . SVG Version: 6.00 Build 0)  -->
<svg version="1.1" id="Capa_1" xmlns="http://www.w3.org/2000/svg" xmlns:xlink="http://www.w3.org/1999/xlink" x="0px" y="0px"
	 viewBox="0 0 128 128" style="enable-background:new 0 0 128 128;" xml:space="preserve">
<style type="text/css">
	.st0{fill:#F0F4EA;}
	.st1{fill:none;stroke:#1D1D1B;stroke-width:2;stroke-linecap:round;stroke-miterlimit:10;}
	.st2{fill:#8BC24A;}
	.st3{fill:none;stroke:#1D1D1B;stroke-width:2;stroke-miterlimit:10;}
	.st4{fill:#FFF59C;}
	.st5{fill:#FFE083;}
	.st6{fill:#FFF176;}
	.st7{fill:#FFD54F;}
	.st8{fill:#FFEE58;}
	.st9{fill:#FFC928;}
	.st10{fill:#FFEB3C;}
	.st11{fill:#FEC107;}
	.st12{fill:#FED835;}
	.st13{fill:#689F39;}
	.st14{opacity:0.5;fill:url(#SVGID_1_);}
	.st15{fill:#FFB200;}
	.st16{fill:#FCC02C;}
	.st17{fill:#FEA000;}
	.st18{fill:#F9A825;}
	.st19{fill:#FF8E00;}
	.st20{fill:#F67F17;}
	.st21{fill:#FF7000;}
	.st22{fill:none;stroke:#1D1D1B;stroke-width:1.6676;stroke-linecap:round;stroke-miterlimit:10;}
	.st23{fill:none;stroke:#1D1D1B;stroke-width:1.6676;stroke-linecap:round;stroke-linejoin:round;stroke-miterlimit:10;}
	.st24{fill:#1D1D1B;}
	.st25{fill:#388E3C;}
	.st26{fill:#FFFFFF;stroke:#1D1D1B;stroke-width:2;stroke-linecap:round;stroke-miterlimit:10;}
	.st27{fill:none;stroke:#1D1D1B;stroke-width:2;stroke-linecap:round;stroke-linejoin:round;stroke-miterlimit:10;}
	.st28{fill:none;stroke:#000000;stroke-width:2;stroke-miterlimit:10;}
	.st29{fill:none;stroke:#000000;stroke-miterlimit:10;}
	.st30{fill:none;stroke:#1D1D1B;stroke-width:3;stroke-linecap:round;stroke-miterlimit:10;}
	.st31{fill:#FFFFFF;stroke:#1D1D1B;stroke-width:0.25;stroke-miterlimit:10;}
	.st32{fill:none;stroke:#000000;stroke-width:2;stroke-linecap:round;stroke-miterlimit:10;}
	.st33{fill:none;stroke:#1D1D1B;stroke-width:1.5;stroke-linecap:round;stroke-miterlimit:10;}
	.st34{fill:#1D1D1B;stroke:#000000;stroke-width:2;stroke-miterlimit:10;}
	.st35{fill:none;stroke:#000000;stroke-width:2;stroke-linejoin:round;stroke-miterlimit:10;}
	.st36{fill:none;stroke:#000000;stroke-width:1.5;stroke-miterlimit:10;}
	.st37{fill:#FFFFFF;}
	.st38{fill:none;stroke:#FFFFFF;stroke-width:3;stroke-linecap:round;stroke-miterlimit:10;}
</style>
<path class="st25" d="M116.2,48.6c-2.2-5.9-8.2-13-24.8-13.2c-10.1-0.1-19.6,2.4-28.3,7.3c-5.3-2-11.9-1.7-16.2-1.4
	c-1.3,0.1-2.4,0.1-3.2,0.1c-1.2,0-2.3,0.2-3.3,0.7l-9-3.2c0,0,3.2-2.8-0.9-6.7c-3.3-3.1-7.4-2.1-9.1-0.3c-1,0-2,0.1-3,0.5
	c-2.3,0.8-3.9,2.5-4.1,4.3c-0.1,1,0.2,1.9,0.6,2.7c0.6,1.6,0.8,1.9-1,2.7c-2.3,1.1-3.5,3-3.4,5.4c0.2,3.3,3.3,6.8,6.7,7.8
	c1.6,0.5,3.1,0.3,4.3-0.5c1.3-0.8,2.1-2.1,2.6-3.3l9.6,3.3c0,1.2,0.1,2.4,0.3,3.7c0.6,3.4,1.7,5.3,3.3,6.1c0.8,0.4,1.5,0.4,2.2,0.3
	c-4.7,6.8-7,12.2-7.2,12.7c-1.7,6.1-1.6,10.4,0.5,13.5c2.8,4.2,8.6,5.6,17.5,6.5c1.6,0.2,3.8,0.3,6.4,0.3c13.6,0,38.5-2.5,47.3-10.1
	C110,82.8,121.4,62.8,116.2,48.6z M21.3,46.4l-0.4,2.3c-0.1,0.7-0.6,2.3-1.5,2.8c-0.2,0.1-0.5,0.3-1.2,0.1c-1.9-0.6-3.8-2.7-4-4.4
	c0-0.5,0.1-1.1,1.1-1.6c5.1-2.3,3.6-6.1,3-7.7c-0.1-0.3-0.3-0.8-0.3-0.8c0-0.2,0.6-0.9,1.7-1.2c0.3-0.1,0.8-0.2,1.4-0.2
	c1,0,2.3,0.3,3.5,1.5c1,0.9,1.5,1.8,1.5,2.5c0,0.7-0.5,1.3-0.5,1.3l-2.5,2.2l12,4.3c-0.2,0.5-0.5,1.1-0.6,1.7c0,0,0,0.1,0,0.1
	c-0.2,0.5-0.3,1.1-0.4,1.6c0,0,0,0,0,0L21.3,46.4z M37.9,57.8c-0.3-1.5-0.3-2.9-0.2-4.3c0.1-1.1,0.3-2.2,0.6-3.2c0,0,0,0,0,0
	c0.2-0.5,0.4-1,0.6-1.4c0,0,0-0.1,0.1-0.1c0.2-0.4,0.4-0.8,0.7-1.1c0.1-0.2,0.3-0.4,0.4-0.5c0.7-0.8,1.9-1.8,3.5-1.8
	c0,0,0.1,0,0.1,0c0.9,0,2.1,0,3.5-0.1c4.3-0.2,8.7-0.3,12.5,0.6l3.1,1.5c2.6,1.3,4.2,3.2,4.9,6c1,4,0.2,7.5-2.3,10.3
	c-3.1,3.4-7.7,4.8-9.9,4.5c-1-0.1-4.4-1.9-10.6-6.3l-1.9-1.4l-0.2,0.3c0,0-0.1-0.1-0.1-0.1l-0.3-0.2c-0.3-0.2-0.6-0.2-0.9-0.2
	c-0.7,0-1.2,0.3-1.6,0.5c-0.2,0.1-0.6,0.4-0.7,0.4C39,61.1,38.4,60.6,37.9,57.8z M101.1,84.2c-8.4,7.2-39.5,9.8-50.1,8.7
	c-7.3-0.8-12.2-1.8-14-4.5c-1.2-1.8-1.2-4.9,0.1-9.4c0.3-0.6,2.5-5.7,7-12.1c7.7,5.3,10,5.7,10.8,5.8c3.8,0.5,10-1.4,14.1-6.1
	C71.4,63.8,74,59,72.2,52c-0.7-2.7-2-4.9-3.9-6.7c7.2-3.5,15-5.3,23.1-5.2c11.1,0.1,17.9,3.5,20.3,10.1
	C115.9,61.5,106.1,79.8,101.1,84.2z"/>
</svg>
