<?xml version="1.0" encoding="utf-8"?>
<!-- Generator: Adobe Illustrator 21.1.0, SVG Export Plug-In . SVG Version: 6.00 Build 0)  -->
<svg version="1.1" id="Capa_1" xmlns="http://www.w3.org/2000/svg" xmlns:xlink="http://www.w3.org/1999/xlink" x="0px" y="0px"
	 viewBox="0 0 128 128" style="enable-background:new 0 0 128 128;" xml:space="preserve">
<style type="text/css">
	.st0{fill:#F0F4EA;}
	.st1{fill:none;stroke:#1D1D1B;stroke-width:2;stroke-linecap:round;stroke-miterlimit:10;}
	.st2{fill:#8BC24A;}
	.st3{fill:none;stroke:#1D1D1B;stroke-width:2;stroke-miterlimit:10;}
	.st4{fill:#FFF59C;}
	.st5{fill:#FFE083;}
	.st6{fill:#FFF176;}
	.st7{fill:#FFD54F;}
	.st8{fill:#FFEE58;}
	.st9{fill:#FFC928;}
	.st10{fill:#FFEB3C;}
	.st11{fill:#FEC107;}
	.st12{fill:#FED835;}
	.st13{fill:#689F39;}
	.st14{opacity:0.5;fill:url(#SVGID_1_);}
	.st15{fill:#FFB200;}
	.st16{fill:#FCC02C;}
	.st17{fill:#FEA000;}
	.st18{fill:#F9A825;}
	.st19{fill:#FF8E00;}
	.st20{fill:#F67F17;}
	.st21{fill:#FF7000;}
	.st22{fill:none;stroke:#1D1D1B;stroke-width:1.6676;stroke-linecap:round;stroke-miterlimit:10;}
	.st23{fill:none;stroke:#1D1D1B;stroke-width:1.6676;stroke-linecap:round;stroke-linejoin:round;stroke-miterlimit:10;}
	.st24{fill:#1D1D1B;}
	.st25{fill:#FFFFFF;}
	.st26{fill:#FFFFFF;stroke:#1D1D1B;stroke-width:2;stroke-linecap:round;stroke-miterlimit:10;}
	.st27{fill:none;stroke:#1D1D1B;stroke-width:2;stroke-linecap:round;stroke-linejoin:round;stroke-miterlimit:10;}
	.st28{fill:none;stroke:#000000;stroke-width:2;stroke-miterlimit:10;}
	.st29{fill:none;stroke:#000000;stroke-miterlimit:10;}
	.st30{fill:none;stroke:#1D1D1B;stroke-width:3;stroke-linecap:round;stroke-miterlimit:10;}
	.st31{fill:#FFFFFF;stroke:#1D1D1B;stroke-width:0.25;stroke-miterlimit:10;}
	.st32{fill:none;stroke:#000000;stroke-width:2;stroke-linecap:round;stroke-miterlimit:10;}
	.st33{fill:none;stroke:#1D1D1B;stroke-width:1.5;stroke-linecap:round;stroke-miterlimit:10;}
	.st34{fill:#1D1D1B;stroke:#000000;stroke-width:2;stroke-miterlimit:10;}
	.st35{fill:none;stroke:#000000;stroke-width:2;stroke-linejoin:round;stroke-miterlimit:10;}
	.st36{fill:none;stroke:#000000;stroke-width:1.5;stroke-miterlimit:10;}
	.st37{fill:none;stroke:#FFFFFF;stroke-width:3;stroke-linecap:round;stroke-miterlimit:10;}
</style>
<g>
	<path class="st25" d="M120.3,66.9c0,0.1,0,0.1-0.1,0.2c-0.7-6.8-7.6-15.7-30.4-25.8c-51.9-23-68.3-8.9-78.3,9.8
		c-2,3.7-3.6,8.6-3.9,13.7c-1,9.2,1.1,25.2,11.3,31.1c10.5,6,22.8,0.8,30.2-1c13.2-3.1,44.9-4.8,52.2-2.5
		C109.8,94.9,122.7,85.9,120.3,66.9z M16.2,53.5c5.2-9.6,12.2-18.9,29.3-18.9c10.1,0,23.6,3.2,42.3,11.5c19.3,8.5,29.4,17.7,27,24.4
		c-1.9,5.4-11.3,8.5-15.8,7.2c-7.6-2.1-38.2-0.5-50.4,2.1c-1.2,0.2-2.5,0.6-3.9,0.9c-6.5,1.7-15.5,3.9-22.9,0.1
		c-4.3-2.2-7-5.3-8.3-9.3C11.6,65.5,13.6,58.2,16.2,53.5z"/>
	<ellipse class="st25" cx="37.4" cy="53.9" rx="8.4" ry="5.4"/>
	<path class="st25" d="M22.9,78.8c2.4,1.2,5.1,1.8,8.3,1.8c4.4,0,8.9-1.1,12.9-2.1c1.4-0.4,2.8-0.7,3.9-0.9c9.2-2,26.5-3.1,37.9-3.1
		c9.7,0,12.6,0.8,13.5,1c0.3,0.1,0.9,0.2,1.7,0.2c4.6,0,10.7-2.9,11.4-6.5c0.8-4-5.4-11.9-25.9-21C69.9,40.7,56,36.9,45.4,36.9
		c-14.7,0-21.5,7.1-27.2,17.7C16,58.7,14,65.4,15.7,70.9C16.8,74.2,19.1,76.8,22.9,78.8z M37.4,47.2c5.8,0,10.5,3,10.5,6.8
		c0,3.7-4.7,6.8-10.5,6.8s-10.5-3-10.5-6.8C26.9,50.2,31.6,47.2,37.4,47.2z"/>
</g>
</svg>
