<?xml version="1.0" encoding="utf-8"?>
<!-- Generator: Adobe Illustrator 21.1.0, SVG Export Plug-In . SVG Version: 6.00 Build 0)  -->
<svg version="1.1" id="Capa_1" xmlns="http://www.w3.org/2000/svg" xmlns:xlink="http://www.w3.org/1999/xlink" x="0px" y="0px"
	 viewBox="0 0 128 128" style="enable-background:new 0 0 128 128;" xml:space="preserve">
<style type="text/css">
	.st0{fill:#F0F4EA;}
	.st1{fill:none;stroke:#1D1D1B;stroke-width:2;stroke-linecap:round;stroke-miterlimit:10;}
	.st2{fill:#8BC24A;}
	.st3{fill:none;stroke:#1D1D1B;stroke-width:2;stroke-miterlimit:10;}
	.st4{fill:#FFF59C;}
	.st5{fill:#FFE083;}
	.st6{fill:#FFF176;}
	.st7{fill:#FFD54F;}
	.st8{fill:#FFEE58;}
	.st9{fill:#FFC928;}
	.st10{fill:#FFEB3C;}
	.st11{fill:#FEC107;}
	.st12{fill:#FED835;}
	.st13{fill:#689F39;}
	.st14{opacity:0.5;fill:url(#SVGID_1_);}
	.st15{fill:#FFB200;}
	.st16{fill:#FCC02C;}
	.st17{fill:#FEA000;}
	.st18{fill:#F9A825;}
	.st19{fill:#FF8E00;}
	.st20{fill:#F67F17;}
	.st21{fill:#FF7000;}
	.st22{fill:none;stroke:#1D1D1B;stroke-width:1.6676;stroke-linecap:round;stroke-miterlimit:10;}
	.st23{fill:none;stroke:#1D1D1B;stroke-width:1.6676;stroke-linecap:round;stroke-linejoin:round;stroke-miterlimit:10;}
	.st24{fill:#1D1D1B;}
	.st25{fill:#388E3C;}
	.st26{fill:#FFFFFF;stroke:#1D1D1B;stroke-width:2;stroke-linecap:round;stroke-miterlimit:10;}
	.st27{fill:none;stroke:#1D1D1B;stroke-width:2;stroke-linecap:round;stroke-linejoin:round;stroke-miterlimit:10;}
	.st28{fill:none;stroke:#000000;stroke-width:2;stroke-miterlimit:10;}
	.st29{fill:none;stroke:#000000;stroke-miterlimit:10;}
	.st30{fill:none;stroke:#1D1D1B;stroke-width:3;stroke-linecap:round;stroke-miterlimit:10;}
	.st31{fill:#FFFFFF;stroke:#1D1D1B;stroke-width:0.25;stroke-miterlimit:10;}
	.st32{fill:none;stroke:#000000;stroke-width:2;stroke-linecap:round;stroke-miterlimit:10;}
	.st33{fill:none;stroke:#1D1D1B;stroke-width:1.5;stroke-linecap:round;stroke-miterlimit:10;}
	.st34{fill:#1D1D1B;stroke:#000000;stroke-width:2;stroke-miterlimit:10;}
	.st35{fill:none;stroke:#000000;stroke-width:2;stroke-linejoin:round;stroke-miterlimit:10;}
	.st36{fill:none;stroke:#000000;stroke-width:1.5;stroke-miterlimit:10;}
	.st37{fill:#FFFFFF;}
	.st38{fill:none;stroke:#FFFFFF;stroke-width:3;stroke-linecap:round;stroke-miterlimit:10;}
</style>
<path class="st25" d="M109,26.3c-1-0.9-2.5-0.9-3.4,0.1c-4.3,4.5-8.8,7.3-12.2,9l8-12.1c0.6-1,0.4-2.3-0.6-2.9
	c-1-0.6-2.3-0.4-2.9,0.6l-7.1,10.7c0-3.8,0.7-9.1,3-15.2c0.5-1.2-0.1-2.6-1.4-3.1c-1.2-0.5-2.6,0.1-3.1,1.4c-1,2.7-1.8,5.2-2.3,7.6
	c-0.1-0.1-0.2-0.1-0.4-0.2c-1.2-0.5-2.6,0.1-3.1,1.4c-1,2.7-1.8,5.2-2.3,7.6c-0.1-0.1-0.2-0.1-0.4-0.2c-1.2-0.5-2.6,0.1-3.1,1.4
	c-4.3,11.1-3.4,20.1-2.9,23.1L74,57l0,0c-1.5-3.9-4-7.2-5.6-8.7c-0.4-0.3-1.5-1.3-2.8-1c-0.4,0.1-0.8,0.3-1.2,0.6
	c0.3-6.2-4.2-12.9-6.8-15.1c-0.2-0.1-0.5-0.4-0.8-0.6c-1.1-3.4-4.6-7.4-5.4-8.3c-0.6-0.6-1.6-0.7-2.2-0.1c-0.6,0.6-0.7,1.6-0.1,2.2
	c1.6,1.7,3.6,4.5,4.5,6.4c-1.4,1.1-3,3.2-4.4,5.9c-0.1-0.4-0.3-0.7-0.5-1.1c-2.8-5.9-10.7-9.2-13.2-9.9c-1.1-0.3-2.3-0.5-3.3,0.2
	c-2.5,1.8-3.9,13.1,0.3,19.1c1,1.4,2.2,2.7,3.5,3.9c-4.1,0.1-7.9,1.1-9.5,1.7c-0.6,0.2-1.1,0.5-1.5,0.9c-1.4-1.9-2.8-4.7-3.6-6.7
	c-0.3-0.8-1.2-1.2-2.1-0.9c-0.8,0.3-1.2,1.2-0.9,2.1c0.5,1.3,3.1,7.5,6.1,9.7c0.1,0.3,0.2,0.5,0.4,0.8c1.4,2.9,5.2,8.1,10.8,10
	c-0.2,0.2-0.4,0.5-0.6,0.8c-0.4,1-0.2,2.3,0.6,4.1c1.5,3,5.5,8.5,11.3,10.2c-0.5,0.3-0.9,0.7-1.2,1.3c-0.4,1-0.2,2.3,0.6,4.1
	c0.7,1.5,2.1,3.5,3.9,5.5h0L39.8,111c-0.7,1.1-0.4,2.6,0.7,3.3c1.1,0.7,2.6,0.4,3.3-0.7l10.3-16.2c1.2,0.7,2.4,1.3,3.8,1.7
	c2.3,0.6,4.8,0.9,7.2,0.9c4,0,7.8-0.7,10.2-1.4c1.5,3.5,4,8.3,6.9,9.8c0.4,0.2,0.7,0.3,1.1,0.3c0.9,0,1.7-0.5,2.1-1.3
	c0.6-1.2,0.2-2.6-1-3.2c-1.3-0.7-3.3-4.1-4.9-7.7l0.3-0.4c0.3-0.3,6.2-8.5,6.8-17.3c0.4-6.3-4.2-13.1-6.8-15.4
	c-0.4-0.3-1.5-1.3-2.8-1c-0.4,0.1-0.8,0.3-1.2,0.7l0,0l1.7-2.7c1.7-0.4,11.3-3.1,20.4-12.7c0.9-1,0.9-2.5-0.1-3.4
	c-0.1-0.1-0.2-0.2-0.3-0.3c1.9-1.5,3.9-3.2,5.9-5.3c0.9-1,0.9-2.5-0.1-3.4c-0.1-0.1-0.2-0.2-0.3-0.3c1.9-1.5,3.9-3.2,5.9-5.3
	C110,28.7,109.9,27.2,109,26.3z M66.2,52.9c1.7,2.1,4.5,6.6,4.3,10.5c-0.3,4.8-2.7,9.5-4.3,12.3c-1.7-2.3-4-6.3-4.4-10.7
	C61.3,60.6,64.4,55.2,66.2,52.9z M69.4,84.5c-1.1-0.7-2.2-1.4-3.4-2c0,0,0,0-0.1,0c0.3-0.1,0.6-0.3,0.8-0.4l0.7,0.2l0.9-1.2
	c0,0,0.1-0.2,0.3-0.4C68.7,82,69,83.2,69.4,84.5z M55.3,37.4c1.7,2.1,4.5,6.6,4.3,10.5c-0.3,4.8-2.7,9.5-4.3,12.3
	c-1.7-2.3-4-6.3-4.4-10.7C50.5,45.1,53.5,39.7,55.3,37.4z M57.4,68.1c-0.5-0.3-1-0.6-1.6-0.9c0.2-0.1,0.4-0.2,0.5-0.3
	c0,0,0.1-0.1,0.1-0.2l0.1,0l0.5-0.6C57.1,66.8,57.3,67.5,57.4,68.1z M34.9,32.4c2.6,0.9,7.7,3.6,9.4,7.1c1.9,4.1,1.9,9,1.6,12
	c-2.7-1.2-7.1-3.5-9.6-7.2C33.9,40.7,34.3,35,34.9,32.4z M37.6,64c-4.1-1.1-7.2-5.2-8.3-7.4c3-0.8,9.4-1.8,13.1-0.1
	c4,1.8,6.9,5.1,8.6,7.4C47.7,64.5,42.2,65.3,37.6,64z M48.5,78.8c-4.1-1.1-7.2-5.2-8.3-7.4c3-0.8,9.4-1.8,13.1-0.1
	c4,1.8,6.9,5.1,8.6,7.4C58.5,79.4,53.1,80.1,48.5,78.8z M59.2,94.4c-4.1-1.1-7.2-5.2-8.3-7.4c3-0.8,9.4-1.8,13.1-0.1
	c4,1.8,6.9,5.1,8.6,7.4C69.3,95,63.9,95.7,59.2,94.4z M77.8,67.8c1.7,2.1,4.5,6.6,4.3,10.5c-0.3,4.8-2.7,9.5-4.3,12.3
	c-1.7-2.3-4-6.3-4.4-10.7C72.9,75.5,76,70.1,77.8,67.8z M79.3,48.6c0.1-2.2,0.3-4.7,0.9-7.6c0,2.5,0.2,4.4,0.4,5.5L79.3,48.6z
	 M86,32.2c0,2.4,0.2,4.2,0.4,5.3l-1.3,2C85.1,37.5,85.4,35,86,32.2z M81.9,53.6l1.5-2.3c0.9-0.2,3-0.9,5.9-2.2
	C86.5,51.1,84,52.6,81.9,53.6z M87.6,44.5l1.4-2.2c1-0.3,3.1-0.9,5.7-2.2C92.2,42.1,89.7,43.5,87.6,44.5z"/>
</svg>
