<?xml version="1.0" encoding="utf-8"?>
<!-- Generator: Adobe Illustrator 21.1.0, SVG Export Plug-In . SVG Version: 6.00 Build 0)  -->
<svg version="1.1" id="Capa_1" xmlns="http://www.w3.org/2000/svg" xmlns:xlink="http://www.w3.org/1999/xlink" x="0px" y="0px"
	 viewBox="0 0 128 128" style="enable-background:new 0 0 128 128;" xml:space="preserve">
<style type="text/css">
	.st0{fill:#F0F4EA;}
	.st1{fill:none;stroke:#1D1D1B;stroke-width:2;stroke-linecap:round;stroke-miterlimit:10;}
	.st2{fill:#8BC24A;}
	.st3{fill:none;stroke:#1D1D1B;stroke-width:2;stroke-miterlimit:10;}
	.st4{fill:#FFF59C;}
	.st5{fill:#FFE083;}
	.st6{fill:#FFF176;}
	.st7{fill:#FFD54F;}
	.st8{fill:#FFEE58;}
	.st9{fill:#FFC928;}
	.st10{fill:#FFEB3C;}
	.st11{fill:#FEC107;}
	.st12{fill:#FED835;}
	.st13{fill:#689F39;}
	.st14{opacity:0.5;fill:url(#SVGID_1_);}
	.st15{fill:#FFB200;}
	.st16{fill:#FCC02C;}
	.st17{fill:#FEA000;}
	.st18{fill:#F9A825;}
	.st19{fill:#FF8E00;}
	.st20{fill:#F67F17;}
	.st21{fill:#FF7000;}
	.st22{fill:none;stroke:#1D1D1B;stroke-width:1.6676;stroke-linecap:round;stroke-miterlimit:10;}
	.st23{fill:none;stroke:#1D1D1B;stroke-width:1.6676;stroke-linecap:round;stroke-linejoin:round;stroke-miterlimit:10;}
	.st24{fill:#1D1D1B;}
	.st25{fill:#388E3C;}
	.st26{fill:#FFFFFF;stroke:#1D1D1B;stroke-width:2;stroke-linecap:round;stroke-miterlimit:10;}
	.st27{fill:none;stroke:#1D1D1B;stroke-width:2;stroke-linecap:round;stroke-linejoin:round;stroke-miterlimit:10;}
	.st28{fill:none;stroke:#000000;stroke-width:2;stroke-miterlimit:10;}
	.st29{fill:none;stroke:#000000;stroke-miterlimit:10;}
	.st30{fill:none;stroke:#1D1D1B;stroke-width:3;stroke-linecap:round;stroke-miterlimit:10;}
	.st31{fill:#FFFFFF;stroke:#1D1D1B;stroke-width:0.25;stroke-miterlimit:10;}
	.st32{fill:none;stroke:#000000;stroke-width:2;stroke-linecap:round;stroke-miterlimit:10;}
	.st33{fill:none;stroke:#1D1D1B;stroke-width:1.5;stroke-linecap:round;stroke-miterlimit:10;}
	.st34{fill:#1D1D1B;stroke:#000000;stroke-width:2;stroke-miterlimit:10;}
	.st35{fill:none;stroke:#000000;stroke-width:2;stroke-linejoin:round;stroke-miterlimit:10;}
	.st36{fill:none;stroke:#000000;stroke-width:1.5;stroke-miterlimit:10;}
	.st37{fill:#FFFFFF;}
	.st38{fill:none;stroke:#FFFFFF;stroke-width:3;stroke-linecap:round;stroke-miterlimit:10;}
</style>
<path class="st25" d="M120.3,83.9c-4.5-3.3-20.3,0.8-25.2-1.4c-4.9-2.2,3.3-4.7-1.9-6.3c-1.4-0.4-3.1-0.6-4.9-0.6
	C88.1,64,86,43.5,75.9,33l-1-1c0,0,0,0,0,0l0,0c-0.1,0-0.1-0.1-0.2-0.1l-0.1-0.1l0,0c-2.4-1.5-5.4-2-8.1-1.3h-0.9L65,30.7l-1.9,0.7
	H63c-2.1-0.7-4.4-0.9-6.6-0.6h-0.2l-0.5,0.1h-0.1l-1.6,0.8h-0.2l-1.5,1L52.2,33l-1.3,1.4l-0.1,0.2l-0.4,0.6
	c-0.2,0.4-0.6,0.6-1.1,0.5l-2.7-0.1c-0.5-0.1-1-0.1-1.4,0l-0.7,0.2c-1.7,0.6-3.3,1.6-4.7,2.9h-0.1l-1.6,1.6l-0.1,0.2
	c-0.5,0.7-1.2,1.3-2,1.6c-1.2,0.6-2.4,1.2-3.6,1.9L31,44.8l-0.2,0.1c-1.5,1.4-2.8,2.9-3.8,4.7l-0.4,0.7v0.1h-0.1l-0.5,0.1H26l-3,1.7
	l-0.1,0.1c-2.4,2.1-3.8,5-4,8.2l-0.1,0.2c-3,2.6-4.9,6.3-5,10.2v0.2c-2.7,2.5-4.5,6-4.8,9.7L8.7,81v0.1l-0.4,0.6
	c-0.4,0.4-0.8,0.9-1.1,1.4c-0.4,0.7-0.5,1.5-0.2,2.3c0.3,0.7,0.9,1.3,1.6,1.6l1.2,0.5c0.2,0.2,0.4,0.3,0.6,0.3l1.4,0.5
	c14.1,5,32.6,7,51.6,6.4l0-0.1l0.4,0c3-0.1,5.7-0.6,8.2-1.2c3.8,1.4,8.1,2.7,10.2,2.3c4.2-0.7-2.5-3.1,2.5-4.6
	c5.1-1.5,9.4,4.5,16.7,6.4C108.8,99.6,124.8,87.2,120.3,83.9z M75.3,38.4c7.1,10,8.7,27,8.9,37.1c-3.7,0-7.1-0.1-8.1-1.8
	c-1.9-3,4-2.4,2.4-9.5c-1.3-5.8-10.6-5-13.9-4.5c1.1-8.2,3.5-16.2,8.5-21.5C73.8,37.6,74.8,37.7,75.3,38.4z M72.5,33.5
	c-1.4,1.1-2.6,2.4-3.7,3.8l-2.6-2.6l-1-1C67.5,32.5,70.2,32.5,72.5,33.5z M53,36.1c1.2-1.6,3-2.4,5.4-2.4l0.1-0.9v0.9
	c0.6,0,1.3,0.1,1.9,0.2l1.2,0.2c0.2,0,0.4,0.1,0.5,0.3l0.2,0.3l1.2,1.1l2.6,2.5l1.2,1.2c-0.6,1-1.2,2-1.7,3
	c-1.6-0.1-3.2-0.5-4.6-1.3l-4-2.4l-2.5-1.5l-1.6-0.9L53,36.1z M40.3,42c2.4-3.1,5.3-4.3,8.5-3.7l1.1,0.1h0.2l0.4,0.1h0.2l1.2,0.6
	c2,1,4,2.2,6,3.4c-2.2,1.2-4.7,2.2-7.3,2.2h-0.2c-1.5-0.1-3.1-0.3-4.5-0.7l-4.7-1.4l-1.1-0.3L40.3,42z M30.2,49.9l0.7-0.9
	c0.6-0.7,1.2-1.4,1.8-2c1.3-1.1,2.9-2,4.5-2.5l0.2-0.1l0.4,0.2l1.3,0.3l2.9,0.7l3.6,1.1h0.2c-3,2.9-6.3,4.2-9.9,3.8
	c-1.7-0.2-3.4-0.2-5-0.2h-1L30.2,49.9z M21.7,59.9c0.3-3.3,2-5.6,5.2-7c0.7-0.2,1.4-0.2,2-0.1H30c1.1,0,2.2,0,3.4,0.1l1.4,0.1h1.4
	l-1.9,3c-2.2,2.6-4.9,3.8-8.1,3.7h-1.1l-3.2,0.2h-0.4V59.9z M16.6,70c0.1-1.9,0.9-3.6,2.4-5.7c0.7-0.9,1.6-1.2,2.8-1.4l2.5-0.2h0.5
	l3.8-0.2h0.1L27,66.3c-1,1.7-2.8,2.8-4.7,3l-1.4,0.2l-1.4,0.2l-2.9,0.5h-0.1V70z M15.2,73.5c0.6-0.5,1.7-0.7,2.7-0.9h0.1l0.6-0.1
	l3.4-0.6l1.7-0.2l-0.6,2l-0.6,1.2c-0.9,1.4-2.3,2.5-3.8,3l-2.8,0.9l-1.5,0.4l-2.5,0.9C12,77.6,13.2,75.2,15.2,73.5z M60.7,91.7
	c-2.1,0.1-4.2,0.1-6.2,0.1c-14.1,0-26.7-1.7-37.6-4.9l-0.4-0.2l-4-1.2L11.1,85H11l-1.2-0.4H9.7c0-0.1,0-0.1,0-0.2
	c0.1-0.4,0.2-0.6,0.7-0.7l1.7-0.8l1.7-0.6l2.4-0.8l2.7-0.8c3.5-1.1,6.2-4.1,7-7.7v-0.2c0.2-0.5,0.3-1.1,0.4-1.7
	c0-0.3,0.2-0.6,0.5-0.7c1.5-1.1,2.7-2.7,3.4-4.4c0.2-1.7,1-3.3,2.2-4.4c2.3-1.1,4.2-3,5.3-5.3l0.8-1.4c0.7-1.1,1.4-1.9,2.7-2.1
	c3-0.6,5.2-2.5,7-4.3c0.6-0.7,1.4-1,2.2-1c2.3,0.1,4.5-0.4,6.6-1.4l1.5-0.7l2.4-1.1h0.1c1.1,0.5,2.3,0.8,3.4,0.9
	c-6.7,16.1-4,38.6-2.9,45.8C61.5,91.3,61.2,91.7,60.7,91.7z"/>
</svg>
