<?xml version="1.0" encoding="utf-8"?>
<!-- Generator: Adobe Illustrator 21.1.0, SVG Export Plug-In . SVG Version: 6.00 Build 0)  -->
<svg version="1.1" id="Capa_1" xmlns="http://www.w3.org/2000/svg" xmlns:xlink="http://www.w3.org/1999/xlink" x="0px" y="0px"
	 viewBox="0 0 128 128" style="enable-background:new 0 0 128 128;" xml:space="preserve">
<style type="text/css">
	.st0{fill:#F0F4EA;}
	.st1{fill:none;stroke:#1D1D1B;stroke-width:2;stroke-linecap:round;stroke-miterlimit:10;}
	.st2{fill:#8BC24A;}
	.st3{fill:none;stroke:#1D1D1B;stroke-width:2;stroke-miterlimit:10;}
	.st4{fill:#FFF59C;}
	.st5{fill:#FFE083;}
	.st6{fill:#FFF176;}
	.st7{fill:#FFD54F;}
	.st8{fill:#FFEE58;}
	.st9{fill:#FFC928;}
	.st10{fill:#FFEB3C;}
	.st11{fill:#FEC107;}
	.st12{fill:#FED835;}
	.st13{fill:#689F39;}
	.st14{opacity:0.5;fill:url(#SVGID_1_);}
	.st15{fill:#FFB200;}
	.st16{fill:#FCC02C;}
	.st17{fill:#FEA000;}
	.st18{fill:#F9A825;}
	.st19{fill:#FF8E00;}
	.st20{fill:#F67F17;}
	.st21{fill:#FF7000;}
	.st22{fill:none;stroke:#1D1D1B;stroke-width:1.6676;stroke-linecap:round;stroke-miterlimit:10;}
	.st23{fill:none;stroke:#1D1D1B;stroke-width:1.6676;stroke-linecap:round;stroke-linejoin:round;stroke-miterlimit:10;}
	.st24{fill:#1D1D1B;}
	.st25{fill:#FFFFFF;}
	.st26{fill:#FFFFFF;stroke:#1D1D1B;stroke-width:2;stroke-linecap:round;stroke-miterlimit:10;}
	.st27{fill:none;stroke:#1D1D1B;stroke-width:2;stroke-linecap:round;stroke-linejoin:round;stroke-miterlimit:10;}
	.st28{fill:none;stroke:#000000;stroke-width:2;stroke-miterlimit:10;}
	.st29{fill:none;stroke:#000000;stroke-miterlimit:10;}
	.st30{fill:none;stroke:#1D1D1B;stroke-width:3;stroke-linecap:round;stroke-miterlimit:10;}
	.st31{fill:#FFFFFF;stroke:#1D1D1B;stroke-width:0.25;stroke-miterlimit:10;}
	.st32{fill:none;stroke:#000000;stroke-width:2;stroke-linecap:round;stroke-miterlimit:10;}
	.st33{fill:none;stroke:#1D1D1B;stroke-width:1.5;stroke-linecap:round;stroke-miterlimit:10;}
	.st34{fill:#1D1D1B;stroke:#000000;stroke-width:2;stroke-miterlimit:10;}
	.st35{fill:none;stroke:#000000;stroke-width:2;stroke-linejoin:round;stroke-miterlimit:10;}
	.st36{fill:none;stroke:#000000;stroke-width:1.5;stroke-miterlimit:10;}
	.st37{fill:none;stroke:#FFFFFF;stroke-width:3;stroke-linecap:round;stroke-miterlimit:10;}
</style>
<path class="st25" d="M35.3,56.4c0,2.3-2.8,4.1-6.3,4.1s-6.3-1.8-6.3-4.1c0-2.3,2.8-4.1,6.3-4.1S35.3,54.2,35.3,56.4z M35,43.5
	c-11.1,0-16.3,5.4-20.6,13.4c-1.7,3.1-3.2,8.2-1.9,12.3c0.8,2.6,2.6,4.5,5.4,6c1.8,0.9,3.9,1.4,6.3,1.4c3.4,0,6.8-0.9,9.8-1.6
	c1.1-0.3,2.1-0.5,3-0.7c4.8-1,12.4-1.7,19.5-2.1c-10.1-8.5-17.8-18.8-20.9-28.6C35.4,43.6,35.2,43.5,35,43.5z M29,61.5
	c-4.4,0-7.9-2.3-7.9-5.1c0-2.8,3.5-5.1,7.9-5.1s7.9,2.3,7.9,5.1C36.9,59.3,33.3,61.5,29,61.5z M58.6,73.9C50.7,74.2,42.2,75,37.4,76
	c-0.9,0.2-1.9,0.4-2.9,0.7c-4.9,1.3-11.7,3-17.3,0.1c-3.2-1.7-5.3-4-6.3-7c-1.4-4.6,0.1-10.1,2-13.7c3.9-7.3,9.2-14.3,22.2-14.3
	c-0.3-1.3-0.6-2.6-0.8-3.9c-13.7,0.2-20.2,7.7-24.9,16.4c-1.5,2.8-2.8,6.5-3,10.4C5.6,71.6,7.3,83.8,15,88.2
	c7.9,4.6,17.3,0.6,22.9-0.7c10-2.4,34-3.6,39.5-1.9c0.2,0,0.3,0.1,0.5,0.1C71,82.6,64.4,78.6,58.6,73.9z M106.5,79.7
	c-0.1-1-0.7-1.5-1.7-1.5c-0.7,0-1.5,1-1.5,1.8c0,0.9,0.8,1.5,1.8,1.4C106,81.4,106.6,80.7,106.5,79.7z M97.7,73.8
	c1,0,1.7,0.6,1.7,1.5c0,0.8-0.8,1.8-1.6,1.7c-0.9-0.1-1.7-0.4-1.6-1.6C96.2,74.4,96.7,73.8,97.7,73.8z M46.8,42.7
	c0.5,0.1,1,0.4,1.4,0.7c1.8,1.3,3.5,2.7,5.3,3.9c2.1,1.5,4.3,3,6.5,4.3c3.8,2.3,7.6,4.5,11.4,6.6c1.6,0.9,3.3,1.7,4.9,2.5
	c0.8,0.4,1,1,0.7,1.6c-0.4,0.6-1,0.6-1.6,0.2c-1.2-0.6-2.3-1.2-3.5-1.7c-4.6-2.3-9-4.8-13.3-7.6c-4.2-2.8-8.3-5.8-12.5-8.8
	c-0.2-0.2-0.3-0.5-0.4-0.7C46,43.1,46.1,42.5,46.8,42.7z M37.2,30.2c0.8-0.4,1.4,0.1,2.3,0.6c1.2,0.8,2.4,1.6,3.7,2.3
	c6.8,4.2,13.6,8.4,20.4,12.6c6.7,4.1,13.3,8.3,20,12.5c6.8,4.2,13.6,8.4,20.3,12.6c4.8,2.9,9.5,5.9,14.3,8.8
	c2.9,1.7,4.4,6.1,2.9,9.3c-1.1,2.2-2.3,4.3-3.8,6.2c-1.7,2.2-4.2,3.1-7.1,2.6c-2.4-0.4-4.1-1.9-6-3c-1-0.6-1.2-1.4-0.6-2.4
	c1.2-2.2,0.5-4.6-1.6-5.9c-2.6-1.6-5.3-3.3-7.9-4.9c-1-0.6-1.2-1.5-0.7-2.4c0.6-0.9,1.5-1,2.4-0.4c2.4,1.5,4.7,3,7.1,4.4
	c3.6,2,4.9,5.2,4.2,9.1c0,0.2,0.1,0.7,0.2,0.8c0.9,0.6,1.8,1.1,2.7,1.5c1.7,0.7,3.9-0.2,4.9-1.7c0.9-1.5,1.8-2.9,2.7-4.4
	c1.4-2.3,0.4-4.8-1.3-5.8c-6.8-4.2-13.6-8.4-20.6-12.7c-0.1,0.2-0.3,0.5-0.4,0.7c-1.2,2-5.4,9.5-9.2,15.6c-0.1,0.2-0.5,0.9-1.2,1.1
	c-0.6,0.2-1.3,0-1.7-0.3C57,76.6,33.2,49.6,37.2,30.2z M83.1,83.1c0.3,0.2,0.7,0.3,1.1,0.5c2-3.3,5.8-10.1,8.6-14.6
	c0.4-0.7,0.4-1-0.3-1.4c-7.8-4.8-15.6-9.6-23.3-14.4c-6.7-4.1-13.3-8.3-20-12.4c-3.4-2.1-6.8-4.2-10.4-6.4
	C41,61.7,76.4,79.7,83.1,83.1z"/>
</svg>
