<?xml version="1.0" encoding="utf-8"?>
<!-- Generator: Adobe Illustrator 21.1.0, SVG Export Plug-In . SVG Version: 6.00 Build 0)  -->
<svg version="1.1" id="Capa_1" xmlns="http://www.w3.org/2000/svg" xmlns:xlink="http://www.w3.org/1999/xlink" x="0px" y="0px"
	 viewBox="0 0 128 128" style="enable-background:new 0 0 128 128;" xml:space="preserve">
<style type="text/css">
	.st0{fill:#F0F4EA;}
	.st1{fill:none;stroke:#1D1D1B;stroke-width:2;stroke-linecap:round;stroke-miterlimit:10;}
	.st2{fill:#8BC24A;}
	.st3{fill:none;stroke:#1D1D1B;stroke-width:2;stroke-miterlimit:10;}
	.st4{fill:#FFF59C;}
	.st5{fill:#FFE083;}
	.st6{fill:#FFF176;}
	.st7{fill:#FFD54F;}
	.st8{fill:#FFEE58;}
	.st9{fill:#FFC928;}
	.st10{fill:#FFEB3C;}
	.st11{fill:#FEC107;}
	.st12{fill:#FED835;}
	.st13{fill:#689F39;}
	.st14{opacity:0.5;fill:url(#SVGID_1_);}
	.st15{fill:#FFB200;}
	.st16{fill:#FCC02C;}
	.st17{fill:#FEA000;}
	.st18{fill:#F9A825;}
	.st19{fill:#FF8E00;}
	.st20{fill:#F67F17;}
	.st21{fill:#FF7000;}
	.st22{fill:none;stroke:#1D1D1B;stroke-width:1.6676;stroke-linecap:round;stroke-miterlimit:10;}
	.st23{fill:none;stroke:#1D1D1B;stroke-width:1.6676;stroke-linecap:round;stroke-linejoin:round;stroke-miterlimit:10;}
	.st24{fill:#1D1D1B;}
	.st25{fill:#388E3C;}
	.st26{fill:#FFFFFF;stroke:#1D1D1B;stroke-width:2;stroke-linecap:round;stroke-miterlimit:10;}
	.st27{fill:none;stroke:#1D1D1B;stroke-width:2;stroke-linecap:round;stroke-linejoin:round;stroke-miterlimit:10;}
	.st28{fill:none;stroke:#000000;stroke-width:2;stroke-miterlimit:10;}
	.st29{fill:none;stroke:#000000;stroke-miterlimit:10;}
	.st30{fill:none;stroke:#1D1D1B;stroke-width:3;stroke-linecap:round;stroke-miterlimit:10;}
	.st31{fill:#FFFFFF;stroke:#1D1D1B;stroke-width:0.25;stroke-miterlimit:10;}
	.st32{fill:none;stroke:#000000;stroke-width:2;stroke-linecap:round;stroke-miterlimit:10;}
	.st33{fill:none;stroke:#1D1D1B;stroke-width:1.5;stroke-linecap:round;stroke-miterlimit:10;}
	.st34{fill:#1D1D1B;stroke:#000000;stroke-width:2;stroke-miterlimit:10;}
	.st35{fill:none;stroke:#000000;stroke-width:2;stroke-linejoin:round;stroke-miterlimit:10;}
	.st36{fill:none;stroke:#000000;stroke-width:1.5;stroke-miterlimit:10;}
	.st37{fill:#FFFFFF;}
	.st38{fill:none;stroke:#FFFFFF;stroke-width:3;stroke-linecap:round;stroke-miterlimit:10;}
</style>
<path class="st25" d="M117.9,72l-0.2-0.2l-0.3-0.1c-0.9-0.4-10.3-4.2-21.3-8.4c2.9-1.6,9.4-5.1,11.2-11.5c1.1-3.7,0.4-7.7-1.9-11.9
	c-3-5.2-6.7-8.4-11.3-9.3c-3.3-0.7-6.4,0-8.8,0.9c0-0.5-0.2-1.4-1-1.5c-0.6-0.1-1.2,0.2-1.6,0.9c-0.2,0.3-1,1.1-1.5,1.4
	c-0.2-0.2-0.5-0.5-1.2-1.4c-0.4-0.5-0.7-1-1.4-1c0,0,0,0,0,0c-0.6,0-0.9,0.4-1.2,0.7c-0.1,0.1-0.2,0.3-0.4,0.5
	c-0.2,0.2-0.3,0.5-0.4,0.7c-1.1-0.2-2.3-0.4-3.8-0.5c-4.7-0.4-8.2,0.9-10.8,3.7c-2.3-0.8-5.4,0.9-8.7,2.6c-4.8,2.5-8.3,4.2-9.8,2
	c-0.9-1.3-2.8-2.6-6.9-1.3C28.2,41,7.4,57.8,7.4,60.2v5.1c0,0.5,0.2,1,0.6,1.3C8.4,66.9,9,67,9.4,66.8c0.1,0,7-2.2,11.3,0.5
	c1.9,1.2,3,3.2,3.4,6.2c0.9,7.7,1.8,11.6,4.4,13.4c1,0.6,2,0.9,3.3,0.9c1.4,0,3.1-0.4,5.2-0.9c5.1-1.4,5.4-5.1,5.6-7.1
	c0-0.3,0.1-0.7,0.1-0.9c0.7,0,2.8,0.7,8.8,3.9c4.8,2.6,8.1,3.2,10.5,1.9c1.8-1,2.6-2.8,3-4.6c9.3,2.6,21.7,3.1,32,3.1
	c2.9,0,5.6,0,8-0.1c1.9,0,3.6,0,5,0c0.3,0,0.6,0,0.9,0c5.3,0,8.3-1.2,9.4-3.6C121.7,76.1,118.3,72.4,117.9,72z M61.1,44.8
	C63.3,35,68.2,34,72.7,34.4c5.6,0.4,7.4,2.1,7.4,2.1l1,1.1l1.1-0.9c0.1,0,5.5-4.2,11.3-3c3.6,0.7,6.6,3.3,9.1,7.7
	c1.9,3.5,2.5,6.7,1.7,9.5c-1.5,5.3-7.4,8.4-9.9,9.7c-0.4,0.2-0.7,0.4-0.9,0.5c-0.3,0.2-0.7,0.4-1.6,0.6c-2.4-0.9-4.8-1.8-7.1-2.7
	c-3.9-1.4-7.3-2.7-10.3-3.7l0,0v0c0,0,0,0-0.1,0c0,0,0,0,0,0c0,0-0.1,0-0.1,0c0,0,0,0,0,0c-1.4-0.5-2.7-0.9-3.8-1.3
	c-1.3-0.4-2.4-0.8-3.5-1.1c0,0,0,0,0,0c0,0-0.1,0-0.1,0c-1.7-0.5-3.1-0.9-4.3-1.2c0,0,0,0,0,0l0,0c0,0,0,0,0,0
	c-0.1,0-0.3-0.1-0.4-0.1c0,0,0-0.1,0-0.1C60.9,49.1,60.9,46,61.1,44.8z M60.5,81.9c-0.7,0.4-2.7,0.7-7.5-1.9
	c-8.1-4.4-10.3-4.8-11.9-3.9c-1.4,0.7-1.5,2.3-1.6,3.5c-0.1,1.9-0.3,3.5-3.3,4.3c-3.3,0.9-4.9,1-5.9,0.4c-1.6-1-2.3-5-3.1-11.1
	c-0.5-3.9-2.1-6.7-4.8-8.4c-2.3-1.4-4.9-1.9-7.3-1.9c-1.8,0-3.4,0.2-4.6,0.5v-2.6C13.5,57.6,33,40.7,40,41c0.8,0,1.1,0.3,1.1,0.5
	c3.1,4.6,9,1.5,13.8-1c1.4-0.8,3.8-2,5.2-2.4c-1.5,2.8-3.6,7.9-1.6,13c-0.4,0.1-0.8,0.2-1.2,0.3c-0.1,0-0.2,0.1-0.3,0.1
	c-0.3,0.1-0.6,0.2-0.9,0.4C56,52,55.9,52,55.8,52.1c-0.4,0.2-0.7,0.5-1,0.8c-1.7,1.6-2.6,4.2-3.1,6.8c-2.1-1.6-4.2-3.5-3.6-4.2
	c1.5-1.5,0.6-2.1-0.6-3.7c-1.2-1.6-2.9-0.7-3,0.8c-0.3,3-1.1,3.4-1.9,4c-0.8,0.7-2.5-4.8-3.4-4.7c-1,0.1-2,4.4-3.6,1.1
	c-1.3-2.8-1.7-1.1-5.5,2.7c-3.8,3.8,0,4.4,3.1,4.2c3.1-0.1,4.9,0,2.3,2.1c-2.6,2.1,0.4,3.1-2.3,5.6c-2.7,2.5,7.4,4.7,9.2,2.1
	c1.8-2.6-3.4-5.8,5.4-6.8c1.4-0.2,2.5,0,3.4,0.2c-0.1,2-0.1,3.8,0,4.7c0,0.6,0.1,1.1,0.2,1.6c0,0.1,0.1,0.3,0.1,0.4
	c0.1,0.5,0.3,0.9,0.5,1.4c0,0,0,0.1,0,0.1c0.2,0.5,0.5,0.9,0.7,1.4c0.1,0.1,0.2,0.3,0.3,0.4c0.3,0.4,0.5,0.7,0.8,1
	c0.2,0.2,0.3,0.4,0.5,0.5c0.2,0.2,0.5,0.5,0.8,0.7c0.2,0.2,0.5,0.4,0.7,0.6c0.1,0.1,0.3,0.2,0.4,0.3c0.6,0.4,1.2,0.8,1.9,1.2
	c0,0,0.1,0,0.1,0c1.1,0.6,2.2,1.1,3.5,1.6C61.6,80.7,61.2,81.6,60.5,81.9z M64.3,76.7c-0.1,0-0.1-0.1-0.1-0.1
	c-3.9-1.3-6.6-2.9-8.2-4.8c-0.1-0.1-0.1-0.2-0.2-0.3c-0.2-0.3-0.4-0.5-0.5-0.8c-0.1-0.1-0.1-0.3-0.2-0.4c-0.1-0.3-0.2-0.5-0.3-0.8
	c0-0.1-0.1-0.3-0.1-0.4c-0.1-0.4-0.2-0.8-0.2-1.3l0-0.1c-0.3-4.4,0.2-10.3,2.6-12.6c0.2-0.2,0.4-0.3,0.6-0.4c0.1,0,0.2-0.1,0.2-0.1
	c0.1-0.1,0.3-0.1,0.4-0.2c0.1,0,0.2-0.1,0.3-0.1c0.1,0,0.3-0.1,0.4-0.1c0.1,0,0.2,0,0.3,0c0.2,0,0.4,0,0.6,0c0.3,0,0.6,0.1,1,0.2
	l0,0c1.7,0.3,4.4,1.1,8,2.3c-1.7,3.6-6.1,13.9-3.3,20.5C65.1,76.9,64.7,76.8,64.3,76.7z M68.7,77.8c0-0.1-0.1-0.2-0.1-0.2
	c-3.9-4.7,0.1-15.4,2.5-20.2c3.4,1.1,7.4,2.6,12.1,4.3c-1.3,2.7-4.6,10.4-2.7,17.8C76.3,79.1,72.3,78.6,68.7,77.8z M117.4,78.2
	c-0.2,0.4-1.2,1.7-6.7,1.7c-1.6,0-3.6,0-5.8,0c-5.8,0.1-14,0.2-22-0.3c-2.2-6.9,1.3-14.8,2.4-17.1c1.9,0.7,3.8,1.4,5.8,2.2l0.4,0.2
	l0,0c2.1,0.8,4.1,1.6,6.2,2.4c-1.1,2.3-2.3,6.2,0.2,9.8c0.2,0.3,0.6,0.5,1,0.5c0.2,0,0.5-0.1,0.7-0.2c0.5-0.4,0.7-1.1,0.3-1.6
	c-1.9-2.7-0.8-5.9,0-7.6c2.9,1.1,5.7,2.3,8.4,3.3c-0.3,1-0.7,2.9-0.4,4.7c0.1,0.6,0.6,1,1.2,1c0.1,0,0.1,0,0.2,0
	c0.6-0.1,1.1-0.7,1-1.3c-0.2-1.3,0.1-2.6,0.3-3.5c1.9,0.8,3.7,1.5,5.3,2.1C116.7,75.4,117.8,77.2,117.4,78.2z"/>
</svg>
